<mxfile host="app.diagrams.net" agent="Mozilla/5.0 (Windows NT 10.0; Win64; x64) AppleWebKit/537.36 (KHTML, like Gecko) Chrome/127.0.0.0 Safari/537.36" version="24.7.6">
  <diagram name="PÃ¡gina-1" id="m194DB5OODm50t4TiOIn">
    <mxGraphModel dx="1434" dy="772" grid="1" gridSize="10" guides="1" tooltips="1" connect="1" arrows="1" fold="1" page="1" pageScale="1" pageWidth="827" pageHeight="1169" math="0" shadow="0">
      <root>
        <mxCell id="0" />
        <mxCell id="1" parent="0" />
        <mxCell id="oNFGNhtA4SceddN9MFem-205" value="" style="group" parent="1" vertex="1" connectable="0">
          <mxGeometry x="40" y="410" width="1000" height="103" as="geometry" />
        </mxCell>
        <mxCell id="oNFGNhtA4SceddN9MFem-169" value="" style="group" parent="oNFGNhtA4SceddN9MFem-205" vertex="1" connectable="0">
          <mxGeometry y="30" width="1000" height="73" as="geometry" />
        </mxCell>
        <mxCell id="oNFGNhtA4SceddN9MFem-156" value="" style="group" parent="oNFGNhtA4SceddN9MFem-169" vertex="1" connectable="0">
          <mxGeometry width="200" height="43" as="geometry" />
        </mxCell>
        <mxCell id="oNFGNhtA4SceddN9MFem-154" value="" style="swimlane;startSize=0;" parent="oNFGNhtA4SceddN9MFem-156" vertex="1">
          <mxGeometry width="200" height="41.5" as="geometry" />
        </mxCell>
        <mxCell id="oNFGNhtA4SceddN9MFem-155" value="&lt;font style=&quot;font-size: 24px;&quot;&gt;codigo&lt;/font&gt;" style="text;html=1;align=center;verticalAlign=middle;resizable=0;points=[];autosize=1;strokeColor=none;fillColor=none;" parent="oNFGNhtA4SceddN9MFem-154" vertex="1">
          <mxGeometry x="55" y="1.5" width="90" height="40" as="geometry" />
        </mxCell>
        <mxCell id="oNFGNhtA4SceddN9MFem-186" value="&lt;font color=&quot;#014e66&quot; style=&quot;font-size: 24px;&quot;&gt;PK&lt;/font&gt;" style="text;html=1;align=center;verticalAlign=middle;whiteSpace=wrap;rounded=0;" parent="oNFGNhtA4SceddN9MFem-154" vertex="1">
          <mxGeometry x="-10" y="6.5" width="60" height="30" as="geometry" />
        </mxCell>
        <mxCell id="oNFGNhtA4SceddN9MFem-157" value="" style="group" parent="oNFGNhtA4SceddN9MFem-169" vertex="1" connectable="0">
          <mxGeometry x="200" width="200" height="43" as="geometry" />
        </mxCell>
        <mxCell id="oNFGNhtA4SceddN9MFem-158" value="" style="swimlane;startSize=0;" parent="oNFGNhtA4SceddN9MFem-157" vertex="1">
          <mxGeometry width="200" height="41.5" as="geometry">
            <mxRectangle width="50" height="40" as="alternateBounds" />
          </mxGeometry>
        </mxCell>
        <mxCell id="oNFGNhtA4SceddN9MFem-159" value="&lt;font style=&quot;font-size: 24px;&quot;&gt;texto&lt;/font&gt;" style="text;html=1;align=center;verticalAlign=middle;resizable=0;points=[];autosize=1;strokeColor=none;fillColor=none;" parent="oNFGNhtA4SceddN9MFem-158" vertex="1">
          <mxGeometry x="60" y="1.5" width="80" height="40" as="geometry" />
        </mxCell>
        <mxCell id="DOF1BjW3caJsl0741FP9-13" value="" style="group" parent="oNFGNhtA4SceddN9MFem-169" vertex="1" connectable="0">
          <mxGeometry x="400" y="-0.75" width="280" height="43" as="geometry" />
        </mxCell>
        <mxCell id="DOF1BjW3caJsl0741FP9-14" value="" style="swimlane;startSize=0;" parent="DOF1BjW3caJsl0741FP9-13" vertex="1">
          <mxGeometry width="280" height="41.5" as="geometry">
            <mxRectangle width="50" height="40" as="alternateBounds" />
          </mxGeometry>
        </mxCell>
        <mxCell id="DOF1BjW3caJsl0741FP9-15" value="&lt;span style=&quot;font-size: 24px;&quot;&gt;usuario_email&lt;/span&gt;" style="text;html=1;align=center;verticalAlign=middle;resizable=0;points=[];autosize=1;strokeColor=none;fillColor=none;" parent="DOF1BjW3caJsl0741FP9-14" vertex="1">
          <mxGeometry x="79" y="1.5" width="170" height="40" as="geometry" />
        </mxCell>
        <mxCell id="DOF1BjW3caJsl0741FP9-56" value="" style="group" parent="oNFGNhtA4SceddN9MFem-169" vertex="1" connectable="0">
          <mxGeometry x="680" y="-0.75" width="280" height="43" as="geometry" />
        </mxCell>
        <mxCell id="DOF1BjW3caJsl0741FP9-57" value="" style="swimlane;startSize=0;" parent="DOF1BjW3caJsl0741FP9-56" vertex="1">
          <mxGeometry width="280" height="41.5" as="geometry">
            <mxRectangle width="50" height="40" as="alternateBounds" />
          </mxGeometry>
        </mxCell>
        <mxCell id="DOF1BjW3caJsl0741FP9-58" value="&lt;span style=&quot;font-size: 24px;&quot;&gt;localizacao_codigo&lt;/span&gt;" style="text;html=1;align=center;verticalAlign=middle;resizable=0;points=[];autosize=1;strokeColor=none;fillColor=none;" parent="DOF1BjW3caJsl0741FP9-57" vertex="1">
          <mxGeometry x="46" y="1" width="230" height="40" as="geometry" />
        </mxCell>
        <mxCell id="Z1wY5rUeDSlEA9U572cd-1" value="&lt;font color=&quot;#ff3333&quot; style=&quot;font-size: 24px;&quot;&gt;FK&lt;/font&gt;" style="text;html=1;align=center;verticalAlign=middle;whiteSpace=wrap;rounded=0;" parent="oNFGNhtA4SceddN9MFem-169" vertex="1">
          <mxGeometry x="387.53999999999996" y="6.25" width="60" height="30" as="geometry" />
        </mxCell>
        <mxCell id="oNFGNhtA4SceddN9MFem-204" value="&lt;b&gt;Postagem&lt;/b&gt;" style="text;html=1;align=left;verticalAlign=middle;whiteSpace=wrap;rounded=0;" parent="oNFGNhtA4SceddN9MFem-205" vertex="1">
          <mxGeometry width="110" height="30" as="geometry" />
        </mxCell>
        <mxCell id="oNFGNhtA4SceddN9MFem-207" value="" style="group" parent="1" vertex="1" connectable="0">
          <mxGeometry x="40" y="530" width="1000" height="73" as="geometry" />
        </mxCell>
        <mxCell id="oNFGNhtA4SceddN9MFem-208" value="" style="group" parent="oNFGNhtA4SceddN9MFem-207" vertex="1" connectable="0">
          <mxGeometry y="30" width="1000" height="43" as="geometry" />
        </mxCell>
        <mxCell id="oNFGNhtA4SceddN9MFem-209" value="" style="group" parent="oNFGNhtA4SceddN9MFem-208" vertex="1" connectable="0">
          <mxGeometry width="280" height="43" as="geometry" />
        </mxCell>
        <mxCell id="oNFGNhtA4SceddN9MFem-210" value="" style="swimlane;startSize=0;" parent="oNFGNhtA4SceddN9MFem-209" vertex="1">
          <mxGeometry width="280" height="41.5" as="geometry" />
        </mxCell>
        <mxCell id="oNFGNhtA4SceddN9MFem-211" value="&lt;font style=&quot;font-size: 24px;&quot;&gt;usuario_email&lt;/font&gt;" style="text;html=1;align=center;verticalAlign=middle;resizable=0;points=[];autosize=1;strokeColor=none;fillColor=none;" parent="oNFGNhtA4SceddN9MFem-210" vertex="1">
          <mxGeometry x="92" y="1.5" width="170" height="40" as="geometry" />
        </mxCell>
        <mxCell id="oNFGNhtA4SceddN9MFem-212" value="&lt;font color=&quot;#014e66&quot; style=&quot;font-size: 24px;&quot;&gt;PK&lt;/font&gt;" style="text;html=1;align=center;verticalAlign=middle;whiteSpace=wrap;rounded=0;" parent="oNFGNhtA4SceddN9MFem-210" vertex="1">
          <mxGeometry x="-10" y="6.5" width="60" height="30" as="geometry" />
        </mxCell>
        <mxCell id="hbX9C-iI9n-MNEtw0XZR-1" value="&lt;font color=&quot;#ff3333&quot; style=&quot;font-size: 24px;&quot;&gt;FK&lt;/font&gt;" style="text;html=1;align=center;verticalAlign=middle;whiteSpace=wrap;rounded=0;" vertex="1" parent="oNFGNhtA4SceddN9MFem-210">
          <mxGeometry x="29.999999999999943" y="5.75" width="60" height="30" as="geometry" />
        </mxCell>
        <mxCell id="oNFGNhtA4SceddN9MFem-213" value="" style="group" parent="oNFGNhtA4SceddN9MFem-208" vertex="1" connectable="0">
          <mxGeometry x="280" width="320" height="43" as="geometry" />
        </mxCell>
        <mxCell id="oNFGNhtA4SceddN9MFem-214" value="" style="swimlane;startSize=0;" parent="oNFGNhtA4SceddN9MFem-213" vertex="1">
          <mxGeometry width="320" height="41.5" as="geometry">
            <mxRectangle width="50" height="40" as="alternateBounds" />
          </mxGeometry>
        </mxCell>
        <mxCell id="oNFGNhtA4SceddN9MFem-215" value="&lt;font style=&quot;font-size: 24px;&quot;&gt;postagem_codigo&lt;/font&gt;" style="text;html=1;align=center;verticalAlign=middle;resizable=0;points=[];autosize=1;strokeColor=none;fillColor=none;" parent="oNFGNhtA4SceddN9MFem-214" vertex="1">
          <mxGeometry x="96.1951219512195" y="1.5" width="210" height="40" as="geometry" />
        </mxCell>
        <mxCell id="oNFGNhtA4SceddN9MFem-216" value="" style="group" parent="oNFGNhtA4SceddN9MFem-208" vertex="1" connectable="0">
          <mxGeometry x="600" width="200" height="43" as="geometry" />
        </mxCell>
        <mxCell id="oNFGNhtA4SceddN9MFem-217" value="" style="swimlane;startSize=0;" parent="oNFGNhtA4SceddN9MFem-216" vertex="1">
          <mxGeometry width="200" height="41.5" as="geometry" />
        </mxCell>
        <mxCell id="oNFGNhtA4SceddN9MFem-218" value="&lt;span style=&quot;font-size: 24px;&quot;&gt;codigo&lt;/span&gt;" style="text;html=1;align=center;verticalAlign=middle;resizable=0;points=[];autosize=1;strokeColor=none;fillColor=none;" parent="oNFGNhtA4SceddN9MFem-217" vertex="1">
          <mxGeometry x="55" y="1.5" width="90" height="40" as="geometry" />
        </mxCell>
        <mxCell id="DOF1BjW3caJsl0741FP9-23" value="" style="group" parent="oNFGNhtA4SceddN9MFem-208" vertex="1" connectable="0">
          <mxGeometry x="800" width="205" height="43" as="geometry" />
        </mxCell>
        <mxCell id="DOF1BjW3caJsl0741FP9-24" value="" style="swimlane;startSize=0;" parent="DOF1BjW3caJsl0741FP9-23" vertex="1">
          <mxGeometry width="205" height="41.5" as="geometry" />
        </mxCell>
        <mxCell id="DOF1BjW3caJsl0741FP9-25" value="&lt;span style=&quot;font-size: 24px;&quot;&gt;texto&lt;/span&gt;" style="text;html=1;align=center;verticalAlign=middle;resizable=0;points=[];autosize=1;strokeColor=none;fillColor=none;" parent="DOF1BjW3caJsl0741FP9-24" vertex="1">
          <mxGeometry x="60" y="1.5" width="80" height="40" as="geometry" />
        </mxCell>
        <mxCell id="oNFGNhtA4SceddN9MFem-225" value="&lt;b&gt;Comentario&lt;/b&gt;" style="text;html=1;align=left;verticalAlign=middle;whiteSpace=wrap;rounded=0;" parent="oNFGNhtA4SceddN9MFem-207" vertex="1">
          <mxGeometry width="110" height="30" as="geometry" />
        </mxCell>
        <mxCell id="oNFGNhtA4SceddN9MFem-226" value="" style="group" parent="1" vertex="1" connectable="0">
          <mxGeometry x="40" y="650" width="1050" height="73" as="geometry" />
        </mxCell>
        <mxCell id="oNFGNhtA4SceddN9MFem-227" value="" style="group" parent="oNFGNhtA4SceddN9MFem-226" vertex="1" connectable="0">
          <mxGeometry y="30" width="1050" height="43" as="geometry" />
        </mxCell>
        <mxCell id="oNFGNhtA4SceddN9MFem-228" value="" style="group" parent="oNFGNhtA4SceddN9MFem-227" vertex="1" connectable="0">
          <mxGeometry width="200" height="43" as="geometry" />
        </mxCell>
        <mxCell id="oNFGNhtA4SceddN9MFem-229" value="" style="swimlane;startSize=0;" parent="oNFGNhtA4SceddN9MFem-228" vertex="1">
          <mxGeometry width="200" height="41.5" as="geometry" />
        </mxCell>
        <mxCell id="oNFGNhtA4SceddN9MFem-230" value="&lt;font style=&quot;font-size: 24px;&quot;&gt;codigo&lt;/font&gt;" style="text;html=1;align=center;verticalAlign=middle;resizable=0;points=[];autosize=1;strokeColor=none;fillColor=none;" parent="oNFGNhtA4SceddN9MFem-229" vertex="1">
          <mxGeometry x="55" y="1.5" width="90" height="40" as="geometry" />
        </mxCell>
        <mxCell id="oNFGNhtA4SceddN9MFem-231" value="&lt;font color=&quot;#014e66&quot; style=&quot;font-size: 24px;&quot;&gt;PK&lt;/font&gt;" style="text;html=1;align=center;verticalAlign=middle;whiteSpace=wrap;rounded=0;" parent="oNFGNhtA4SceddN9MFem-229" vertex="1">
          <mxGeometry x="-10" y="6.5" width="60" height="30" as="geometry" />
        </mxCell>
        <mxCell id="oNFGNhtA4SceddN9MFem-232" value="" style="group" parent="oNFGNhtA4SceddN9MFem-227" vertex="1" connectable="0">
          <mxGeometry x="200" width="200" height="43" as="geometry" />
        </mxCell>
        <mxCell id="oNFGNhtA4SceddN9MFem-233" value="" style="swimlane;startSize=0;" parent="oNFGNhtA4SceddN9MFem-232" vertex="1">
          <mxGeometry width="200" height="41.5" as="geometry">
            <mxRectangle width="50" height="40" as="alternateBounds" />
          </mxGeometry>
        </mxCell>
        <mxCell id="oNFGNhtA4SceddN9MFem-234" value="&lt;font style=&quot;font-size: 24px;&quot;&gt;descricao&lt;/font&gt;" style="text;html=1;align=center;verticalAlign=middle;resizable=0;points=[];autosize=1;strokeColor=none;fillColor=none;" parent="oNFGNhtA4SceddN9MFem-233" vertex="1">
          <mxGeometry x="35" y="1.5" width="130" height="40" as="geometry" />
        </mxCell>
        <mxCell id="oNFGNhtA4SceddN9MFem-235" value="" style="group" parent="oNFGNhtA4SceddN9MFem-227" vertex="1" connectable="0">
          <mxGeometry x="400" width="200" height="43" as="geometry" />
        </mxCell>
        <mxCell id="oNFGNhtA4SceddN9MFem-236" value="" style="swimlane;startSize=0;" parent="oNFGNhtA4SceddN9MFem-235" vertex="1">
          <mxGeometry width="200" height="41.5" as="geometry" />
        </mxCell>
        <mxCell id="oNFGNhtA4SceddN9MFem-237" value="&lt;font style=&quot;font-size: 24px;&quot;&gt;coordenadas&lt;/font&gt;" style="text;html=1;align=center;verticalAlign=middle;resizable=0;points=[];autosize=1;strokeColor=none;fillColor=none;" parent="oNFGNhtA4SceddN9MFem-236" vertex="1">
          <mxGeometry x="20" y="1.5" width="160" height="40" as="geometry" />
        </mxCell>
        <mxCell id="oNFGNhtA4SceddN9MFem-244" value="&lt;b&gt;Localizacao&lt;/b&gt;" style="text;html=1;align=left;verticalAlign=middle;whiteSpace=wrap;rounded=0;" parent="oNFGNhtA4SceddN9MFem-226" vertex="1">
          <mxGeometry width="110" height="30" as="geometry" />
        </mxCell>
        <mxCell id="oNFGNhtA4SceddN9MFem-271" value="" style="group" parent="1" vertex="1" connectable="0">
          <mxGeometry x="40" y="290" width="1230" height="73" as="geometry" />
        </mxCell>
        <mxCell id="oNFGNhtA4SceddN9MFem-206" value="" style="group" parent="oNFGNhtA4SceddN9MFem-271" vertex="1" connectable="0">
          <mxGeometry width="1001" height="73" as="geometry" />
        </mxCell>
        <mxCell id="oNFGNhtA4SceddN9MFem-136" value="&lt;b&gt;Usuario&lt;/b&gt;" style="text;html=1;align=left;verticalAlign=middle;whiteSpace=wrap;rounded=0;" parent="oNFGNhtA4SceddN9MFem-206" vertex="1">
          <mxGeometry width="110" height="30" as="geometry" />
        </mxCell>
        <mxCell id="oNFGNhtA4SceddN9MFem-187" value="" style="group" parent="oNFGNhtA4SceddN9MFem-206" vertex="1" connectable="0">
          <mxGeometry y="30" width="1001" height="43" as="geometry" />
        </mxCell>
        <mxCell id="oNFGNhtA4SceddN9MFem-188" value="" style="group" parent="oNFGNhtA4SceddN9MFem-187" vertex="1" connectable="0">
          <mxGeometry width="200" height="43" as="geometry" />
        </mxCell>
        <mxCell id="oNFGNhtA4SceddN9MFem-189" value="" style="swimlane;startSize=0;" parent="oNFGNhtA4SceddN9MFem-188" vertex="1">
          <mxGeometry width="200" height="41.5" as="geometry" />
        </mxCell>
        <mxCell id="oNFGNhtA4SceddN9MFem-190" value="&lt;font style=&quot;font-size: 24px;&quot;&gt;email&lt;/font&gt;" style="text;html=1;align=center;verticalAlign=middle;resizable=0;points=[];autosize=1;strokeColor=none;fillColor=none;" parent="oNFGNhtA4SceddN9MFem-189" vertex="1">
          <mxGeometry x="60" y="1.5" width="80" height="40" as="geometry" />
        </mxCell>
        <mxCell id="oNFGNhtA4SceddN9MFem-191" value="&lt;font color=&quot;#014e66&quot; style=&quot;font-size: 24px;&quot;&gt;PK&lt;/font&gt;" style="text;html=1;align=center;verticalAlign=middle;whiteSpace=wrap;rounded=0;" parent="oNFGNhtA4SceddN9MFem-189" vertex="1">
          <mxGeometry x="-10" y="6.5" width="60" height="30" as="geometry" />
        </mxCell>
        <mxCell id="oNFGNhtA4SceddN9MFem-192" value="" style="group" parent="oNFGNhtA4SceddN9MFem-187" vertex="1" connectable="0">
          <mxGeometry x="200" width="200" height="43" as="geometry" />
        </mxCell>
        <mxCell id="oNFGNhtA4SceddN9MFem-193" value="" style="swimlane;startSize=0;" parent="oNFGNhtA4SceddN9MFem-192" vertex="1">
          <mxGeometry width="200" height="41.5" as="geometry">
            <mxRectangle width="50" height="40" as="alternateBounds" />
          </mxGeometry>
        </mxCell>
        <mxCell id="oNFGNhtA4SceddN9MFem-194" value="&lt;span style=&quot;font-size: 24px;&quot;&gt;nome&lt;/span&gt;" style="text;html=1;align=center;verticalAlign=middle;resizable=0;points=[];autosize=1;strokeColor=none;fillColor=none;" parent="oNFGNhtA4SceddN9MFem-193" vertex="1">
          <mxGeometry x="60" y="1.5" width="80" height="40" as="geometry" />
        </mxCell>
        <mxCell id="oNFGNhtA4SceddN9MFem-275" value="" style="group" parent="1" vertex="1" connectable="0">
          <mxGeometry x="40" y="770" width="1400" height="73" as="geometry" />
        </mxCell>
        <mxCell id="oNFGNhtA4SceddN9MFem-267" value="" style="group" parent="oNFGNhtA4SceddN9MFem-275" vertex="1" connectable="0">
          <mxGeometry width="1200" height="73" as="geometry" />
        </mxCell>
        <mxCell id="oNFGNhtA4SceddN9MFem-245" value="" style="group" parent="oNFGNhtA4SceddN9MFem-267" vertex="1" connectable="0">
          <mxGeometry width="1000" height="73" as="geometry" />
        </mxCell>
        <mxCell id="oNFGNhtA4SceddN9MFem-246" value="" style="group" parent="oNFGNhtA4SceddN9MFem-245" vertex="1" connectable="0">
          <mxGeometry y="30" width="1000" height="43" as="geometry" />
        </mxCell>
        <mxCell id="oNFGNhtA4SceddN9MFem-247" value="" style="group" parent="oNFGNhtA4SceddN9MFem-246" vertex="1" connectable="0">
          <mxGeometry width="200" height="43" as="geometry" />
        </mxCell>
        <mxCell id="oNFGNhtA4SceddN9MFem-248" value="" style="swimlane;startSize=0;" parent="oNFGNhtA4SceddN9MFem-247" vertex="1">
          <mxGeometry width="200" height="41.5" as="geometry" />
        </mxCell>
        <mxCell id="oNFGNhtA4SceddN9MFem-249" value="&lt;font style=&quot;font-size: 24px;&quot;&gt;codigo&lt;/font&gt;" style="text;html=1;align=center;verticalAlign=middle;resizable=0;points=[];autosize=1;strokeColor=none;fillColor=none;" parent="oNFGNhtA4SceddN9MFem-248" vertex="1">
          <mxGeometry x="55" y="1.5" width="90" height="40" as="geometry" />
        </mxCell>
        <mxCell id="oNFGNhtA4SceddN9MFem-250" value="&lt;font color=&quot;#014e66&quot; style=&quot;font-size: 24px;&quot;&gt;PK&lt;/font&gt;" style="text;html=1;align=center;verticalAlign=middle;whiteSpace=wrap;rounded=0;" parent="oNFGNhtA4SceddN9MFem-248" vertex="1">
          <mxGeometry x="-10" y="6.5" width="60" height="30" as="geometry" />
        </mxCell>
        <mxCell id="oNFGNhtA4SceddN9MFem-251" value="" style="group" parent="oNFGNhtA4SceddN9MFem-246" vertex="1" connectable="0">
          <mxGeometry x="200" width="200" height="43" as="geometry" />
        </mxCell>
        <mxCell id="oNFGNhtA4SceddN9MFem-252" value="" style="swimlane;startSize=0;" parent="oNFGNhtA4SceddN9MFem-251" vertex="1">
          <mxGeometry width="200" height="41.5" as="geometry">
            <mxRectangle width="50" height="40" as="alternateBounds" />
          </mxGeometry>
        </mxCell>
        <mxCell id="oNFGNhtA4SceddN9MFem-253" value="&lt;font style=&quot;font-size: 24px;&quot;&gt;titulo&lt;/font&gt;" style="text;html=1;align=center;verticalAlign=middle;resizable=0;points=[];autosize=1;strokeColor=none;fillColor=none;" parent="oNFGNhtA4SceddN9MFem-252" vertex="1">
          <mxGeometry x="65" y="1.5" width="70" height="40" as="geometry" />
        </mxCell>
        <mxCell id="DOF1BjW3caJsl0741FP9-41" value="" style="group" parent="oNFGNhtA4SceddN9MFem-246" vertex="1" connectable="0">
          <mxGeometry x="400" y="0.5" width="200" height="43" as="geometry" />
        </mxCell>
        <mxCell id="DOF1BjW3caJsl0741FP9-42" value="" style="swimlane;startSize=0;" parent="DOF1BjW3caJsl0741FP9-41" vertex="1">
          <mxGeometry width="200" height="41.5" as="geometry">
            <mxRectangle width="50" height="40" as="alternateBounds" />
          </mxGeometry>
        </mxCell>
        <mxCell id="DOF1BjW3caJsl0741FP9-43" value="&lt;font style=&quot;font-size: 24px;&quot;&gt;descricao&lt;/font&gt;" style="text;html=1;align=center;verticalAlign=middle;resizable=0;points=[];autosize=1;strokeColor=none;fillColor=none;" parent="DOF1BjW3caJsl0741FP9-42" vertex="1">
          <mxGeometry x="35" y="1.5" width="130" height="40" as="geometry" />
        </mxCell>
        <mxCell id="oNFGNhtA4SceddN9MFem-263" value="&lt;b&gt;Grupo&lt;/b&gt;" style="text;html=1;align=left;verticalAlign=middle;whiteSpace=wrap;rounded=0;" parent="oNFGNhtA4SceddN9MFem-245" vertex="1">
          <mxGeometry width="110" height="30" as="geometry" />
        </mxCell>
        <mxCell id="GgJrNzVZVlJhMmaJBiFv-173" value="" style="group" parent="1" vertex="1" connectable="0">
          <mxGeometry x="41" y="1250" width="1200" height="73" as="geometry" />
        </mxCell>
        <mxCell id="GgJrNzVZVlJhMmaJBiFv-311" value="" style="group" parent="1" vertex="1" connectable="0">
          <mxGeometry x="41" y="890" width="1000" height="74.5" as="geometry" />
        </mxCell>
        <mxCell id="GgJrNzVZVlJhMmaJBiFv-312" value="" style="group" parent="GgJrNzVZVlJhMmaJBiFv-311" vertex="1" connectable="0">
          <mxGeometry y="30" width="1000" height="44.5" as="geometry" />
        </mxCell>
        <mxCell id="GgJrNzVZVlJhMmaJBiFv-313" value="" style="group" parent="GgJrNzVZVlJhMmaJBiFv-312" vertex="1" connectable="0">
          <mxGeometry width="200" height="43" as="geometry" />
        </mxCell>
        <mxCell id="GgJrNzVZVlJhMmaJBiFv-314" value="" style="swimlane;startSize=0;" parent="GgJrNzVZVlJhMmaJBiFv-313" vertex="1">
          <mxGeometry width="200" height="41.5" as="geometry" />
        </mxCell>
        <mxCell id="GgJrNzVZVlJhMmaJBiFv-315" value="&lt;font style=&quot;font-size: 24px;&quot;&gt;codigo&lt;/font&gt;" style="text;html=1;align=center;verticalAlign=middle;resizable=0;points=[];autosize=1;strokeColor=none;fillColor=none;" parent="GgJrNzVZVlJhMmaJBiFv-314" vertex="1">
          <mxGeometry x="55" y="1.5" width="90" height="40" as="geometry" />
        </mxCell>
        <mxCell id="GgJrNzVZVlJhMmaJBiFv-316" value="&lt;font color=&quot;#014e66&quot; style=&quot;font-size: 24px;&quot;&gt;PK&lt;/font&gt;" style="text;html=1;align=center;verticalAlign=middle;whiteSpace=wrap;rounded=0;" parent="GgJrNzVZVlJhMmaJBiFv-314" vertex="1">
          <mxGeometry x="-10" y="6.5" width="60" height="30" as="geometry" />
        </mxCell>
        <mxCell id="GgJrNzVZVlJhMmaJBiFv-317" value="" style="group" parent="GgJrNzVZVlJhMmaJBiFv-312" vertex="1" connectable="0">
          <mxGeometry x="200" width="200" height="43" as="geometry" />
        </mxCell>
        <mxCell id="GgJrNzVZVlJhMmaJBiFv-318" value="" style="swimlane;startSize=0;" parent="GgJrNzVZVlJhMmaJBiFv-317" vertex="1">
          <mxGeometry width="200" height="41.5" as="geometry">
            <mxRectangle width="50" height="40" as="alternateBounds" />
          </mxGeometry>
        </mxCell>
        <mxCell id="GgJrNzVZVlJhMmaJBiFv-319" value="&lt;font style=&quot;font-size: 24px;&quot;&gt;descricao&lt;/font&gt;" style="text;html=1;align=center;verticalAlign=middle;resizable=0;points=[];autosize=1;strokeColor=none;fillColor=none;" parent="GgJrNzVZVlJhMmaJBiFv-318" vertex="1">
          <mxGeometry x="35" y="1.5" width="130" height="40" as="geometry" />
        </mxCell>
        <mxCell id="GgJrNzVZVlJhMmaJBiFv-323" value="&lt;b&gt;Categoria&lt;/b&gt;" style="text;html=1;align=left;verticalAlign=middle;whiteSpace=wrap;rounded=0;" parent="GgJrNzVZVlJhMmaJBiFv-311" vertex="1">
          <mxGeometry width="110" height="30" as="geometry" />
        </mxCell>
        <mxCell id="GgJrNzVZVlJhMmaJBiFv-324" value="" style="group" parent="1" vertex="1" connectable="0">
          <mxGeometry x="41" y="1010" width="1000" height="73" as="geometry" />
        </mxCell>
        <mxCell id="GgJrNzVZVlJhMmaJBiFv-342" value="&lt;b&gt;Usuario_grupo&lt;/b&gt;" style="text;html=1;align=left;verticalAlign=middle;whiteSpace=wrap;rounded=0;" parent="GgJrNzVZVlJhMmaJBiFv-324" vertex="1">
          <mxGeometry width="110" height="30" as="geometry" />
        </mxCell>
        <mxCell id="DOF1BjW3caJsl0741FP9-76" value="" style="group" parent="GgJrNzVZVlJhMmaJBiFv-324" vertex="1" connectable="0">
          <mxGeometry x="-1" y="30" width="280" height="43" as="geometry" />
        </mxCell>
        <mxCell id="DOF1BjW3caJsl0741FP9-77" value="" style="swimlane;startSize=0;" parent="DOF1BjW3caJsl0741FP9-76" vertex="1">
          <mxGeometry width="280" height="41.5" as="geometry" />
        </mxCell>
        <mxCell id="DOF1BjW3caJsl0741FP9-78" value="&lt;font style=&quot;font-size: 24px;&quot;&gt;usuario_email&lt;/font&gt;" style="text;html=1;align=center;verticalAlign=middle;resizable=0;points=[];autosize=1;strokeColor=none;fillColor=none;" parent="DOF1BjW3caJsl0741FP9-77" vertex="1">
          <mxGeometry x="94" y="1.5" width="170" height="40" as="geometry" />
        </mxCell>
        <mxCell id="DOF1BjW3caJsl0741FP9-79" value="&lt;font color=&quot;#014e66&quot; style=&quot;font-size: 24px;&quot;&gt;PK&lt;/font&gt;" style="text;html=1;align=center;verticalAlign=middle;whiteSpace=wrap;rounded=0;" parent="DOF1BjW3caJsl0741FP9-77" vertex="1">
          <mxGeometry x="-10" y="6.5" width="60" height="30" as="geometry" />
        </mxCell>
        <mxCell id="DOF1BjW3caJsl0741FP9-80" value="&lt;font color=&quot;#ff3333&quot; style=&quot;font-size: 24px;&quot;&gt;FK&lt;/font&gt;" style="text;html=1;align=center;verticalAlign=middle;whiteSpace=wrap;rounded=0;" parent="DOF1BjW3caJsl0741FP9-77" vertex="1">
          <mxGeometry x="29" y="9" width="60" height="30" as="geometry" />
        </mxCell>
        <mxCell id="DOF1BjW3caJsl0741FP9-81" value="" style="group" parent="GgJrNzVZVlJhMmaJBiFv-324" vertex="1" connectable="0">
          <mxGeometry x="279" y="29.5" width="281" height="43" as="geometry" />
        </mxCell>
        <mxCell id="DOF1BjW3caJsl0741FP9-82" value="" style="swimlane;startSize=0;" parent="DOF1BjW3caJsl0741FP9-81" vertex="1">
          <mxGeometry width="281" height="41.5" as="geometry">
            <mxRectangle width="50" height="40" as="alternateBounds" />
          </mxGeometry>
        </mxCell>
        <mxCell id="DOF1BjW3caJsl0741FP9-83" value="&lt;font style=&quot;font-size: 24px;&quot;&gt;grupo_codigo&lt;/font&gt;" style="text;html=1;align=center;verticalAlign=middle;resizable=0;points=[];autosize=1;strokeColor=none;fillColor=none;" parent="DOF1BjW3caJsl0741FP9-82" vertex="1">
          <mxGeometry x="90.74107142857143" y="1.5" width="170" height="40" as="geometry" />
        </mxCell>
        <mxCell id="DOF1BjW3caJsl0741FP9-84" value="&lt;font color=&quot;#ff3333&quot; style=&quot;font-size: 24px;&quot;&gt;FK&lt;/font&gt;" style="text;html=1;align=center;verticalAlign=middle;whiteSpace=wrap;rounded=0;" parent="DOF1BjW3caJsl0741FP9-82" vertex="1">
          <mxGeometry x="22.999464285714293" y="7.5" width="75.26785714285715" height="30" as="geometry" />
        </mxCell>
        <mxCell id="DOF1BjW3caJsl0741FP9-85" value="&lt;font color=&quot;#014e66&quot; style=&quot;font-size: 24px;&quot;&gt;PK&lt;/font&gt;" style="text;html=1;align=center;verticalAlign=middle;whiteSpace=wrap;rounded=0;" parent="DOF1BjW3caJsl0741FP9-82" vertex="1">
          <mxGeometry x="-11.290178571428573" y="7.5" width="75.26785714285715" height="30" as="geometry" />
        </mxCell>
        <mxCell id="GgJrNzVZVlJhMmaJBiFv-343" value="" style="group" parent="1" vertex="1" connectable="0">
          <mxGeometry x="41" y="1130" width="1200" height="73" as="geometry" />
        </mxCell>
        <mxCell id="GgJrNzVZVlJhMmaJBiFv-344" value="" style="group" parent="GgJrNzVZVlJhMmaJBiFv-343" vertex="1" connectable="0">
          <mxGeometry width="1000" height="73" as="geometry" />
        </mxCell>
        <mxCell id="GgJrNzVZVlJhMmaJBiFv-345" value="" style="group" parent="GgJrNzVZVlJhMmaJBiFv-344" vertex="1" connectable="0">
          <mxGeometry y="30" width="1000" height="43" as="geometry" />
        </mxCell>
        <mxCell id="GgJrNzVZVlJhMmaJBiFv-346" value="" style="group" parent="GgJrNzVZVlJhMmaJBiFv-345" vertex="1" connectable="0">
          <mxGeometry width="280" height="43" as="geometry" />
        </mxCell>
        <mxCell id="GgJrNzVZVlJhMmaJBiFv-347" value="" style="swimlane;startSize=0;" parent="GgJrNzVZVlJhMmaJBiFv-346" vertex="1">
          <mxGeometry width="280" height="41.5" as="geometry" />
        </mxCell>
        <mxCell id="GgJrNzVZVlJhMmaJBiFv-348" value="&lt;font style=&quot;font-size: 24px;&quot;&gt;grupo_codigo&lt;/font&gt;" style="text;html=1;align=center;verticalAlign=middle;resizable=0;points=[];autosize=1;strokeColor=none;fillColor=none;" parent="GgJrNzVZVlJhMmaJBiFv-347" vertex="1">
          <mxGeometry x="94" y="1.5" width="170" height="40" as="geometry" />
        </mxCell>
        <mxCell id="GgJrNzVZVlJhMmaJBiFv-349" value="&lt;font color=&quot;#014e66&quot; style=&quot;font-size: 24px;&quot;&gt;PK&lt;/font&gt;" style="text;html=1;align=center;verticalAlign=middle;whiteSpace=wrap;rounded=0;" parent="GgJrNzVZVlJhMmaJBiFv-347" vertex="1">
          <mxGeometry x="-10" y="6.5" width="60" height="30" as="geometry" />
        </mxCell>
        <mxCell id="GgJrNzVZVlJhMmaJBiFv-411" value="&lt;font color=&quot;#ff3333&quot; style=&quot;font-size: 24px;&quot;&gt;FK&lt;/font&gt;" style="text;html=1;align=center;verticalAlign=middle;whiteSpace=wrap;rounded=0;" parent="GgJrNzVZVlJhMmaJBiFv-347" vertex="1">
          <mxGeometry x="29" y="9" width="60" height="30" as="geometry" />
        </mxCell>
        <mxCell id="GgJrNzVZVlJhMmaJBiFv-350" value="" style="group" parent="GgJrNzVZVlJhMmaJBiFv-345" vertex="1" connectable="0">
          <mxGeometry x="280" y="-0.5" width="282" height="43" as="geometry" />
        </mxCell>
        <mxCell id="GgJrNzVZVlJhMmaJBiFv-351" value="" style="swimlane;startSize=0;" parent="GgJrNzVZVlJhMmaJBiFv-350" vertex="1">
          <mxGeometry width="282" height="41.5" as="geometry">
            <mxRectangle width="50" height="40" as="alternateBounds" />
          </mxGeometry>
        </mxCell>
        <mxCell id="GgJrNzVZVlJhMmaJBiFv-352" value="&lt;font style=&quot;font-size: 24px;&quot;&gt;categoria_codigo&lt;/font&gt;" style="text;html=1;align=center;verticalAlign=middle;resizable=0;points=[];autosize=1;strokeColor=none;fillColor=none;" parent="GgJrNzVZVlJhMmaJBiFv-351" vertex="1">
          <mxGeometry x="72" width="210" height="40" as="geometry" />
        </mxCell>
        <mxCell id="GgJrNzVZVlJhMmaJBiFv-412" value="&lt;font color=&quot;#ff3333&quot; style=&quot;font-size: 24px;&quot;&gt;FK&lt;/font&gt;" style="text;html=1;align=center;verticalAlign=middle;whiteSpace=wrap;rounded=0;" parent="GgJrNzVZVlJhMmaJBiFv-351" vertex="1">
          <mxGeometry x="23.25" y="7.5" width="75" height="30" as="geometry" />
        </mxCell>
        <mxCell id="GgJrNzVZVlJhMmaJBiFv-414" value="&lt;font color=&quot;#014e66&quot; style=&quot;font-size: 24px;&quot;&gt;PK&lt;/font&gt;" style="text;html=1;align=center;verticalAlign=middle;whiteSpace=wrap;rounded=0;" parent="GgJrNzVZVlJhMmaJBiFv-351" vertex="1">
          <mxGeometry x="-11.25" y="7.5" width="75" height="30" as="geometry" />
        </mxCell>
        <mxCell id="GgJrNzVZVlJhMmaJBiFv-359" value="&lt;b&gt;Grupo_categoria&lt;/b&gt;" style="text;html=1;align=left;verticalAlign=middle;whiteSpace=wrap;rounded=0;" parent="GgJrNzVZVlJhMmaJBiFv-344" vertex="1">
          <mxGeometry width="110" height="30" as="geometry" />
        </mxCell>
        <mxCell id="DOF1BjW3caJsl0741FP9-4" value="" style="group" parent="1" vertex="1" connectable="0">
          <mxGeometry x="440" y="320" width="200" height="43" as="geometry" />
        </mxCell>
        <mxCell id="DOF1BjW3caJsl0741FP9-5" value="" style="swimlane;startSize=0;" parent="DOF1BjW3caJsl0741FP9-4" vertex="1">
          <mxGeometry width="200" height="41.5" as="geometry">
            <mxRectangle width="50" height="40" as="alternateBounds" />
          </mxGeometry>
        </mxCell>
        <mxCell id="DOF1BjW3caJsl0741FP9-6" value="&lt;span style=&quot;font-size: 24px;&quot;&gt;senha&lt;/span&gt;" style="text;html=1;align=center;verticalAlign=middle;resizable=0;points=[];autosize=1;strokeColor=none;fillColor=none;" parent="DOF1BjW3caJsl0741FP9-5" vertex="1">
          <mxGeometry x="55" y="1.5" width="90" height="40" as="geometry" />
        </mxCell>
        <mxCell id="DOF1BjW3caJsl0741FP9-7" value="" style="group" parent="1" vertex="1" connectable="0">
          <mxGeometry x="640" y="320" width="200" height="43" as="geometry" />
        </mxCell>
        <mxCell id="DOF1BjW3caJsl0741FP9-8" value="" style="swimlane;startSize=0;" parent="DOF1BjW3caJsl0741FP9-7" vertex="1">
          <mxGeometry width="200" height="41.5" as="geometry">
            <mxRectangle width="50" height="40" as="alternateBounds" />
          </mxGeometry>
        </mxCell>
        <mxCell id="DOF1BjW3caJsl0741FP9-9" value="&lt;span style=&quot;font-size: 24px;&quot;&gt;nascimento&lt;/span&gt;" style="text;html=1;align=center;verticalAlign=middle;resizable=0;points=[];autosize=1;strokeColor=none;fillColor=none;" parent="DOF1BjW3caJsl0741FP9-8" vertex="1">
          <mxGeometry x="25" y="1.5" width="150" height="40" as="geometry" />
        </mxCell>
        <mxCell id="DOF1BjW3caJsl0741FP9-65" value="&lt;font color=&quot;#ff3333&quot; style=&quot;font-size: 24px;&quot;&gt;FK&lt;/font&gt;" style="text;html=1;align=center;verticalAlign=middle;whiteSpace=wrap;rounded=0;" parent="1" vertex="1">
          <mxGeometry x="708.54" y="447" width="60" height="30" as="geometry" />
        </mxCell>
        <mxCell id="hbX9C-iI9n-MNEtw0XZR-2" value="&lt;font color=&quot;#014e66&quot; style=&quot;font-size: 24px;&quot;&gt;PK&lt;/font&gt;" style="text;html=1;align=center;verticalAlign=middle;whiteSpace=wrap;rounded=0;" vertex="1" parent="1">
          <mxGeometry x="310" y="566.5" width="60" height="30" as="geometry" />
        </mxCell>
        <mxCell id="hbX9C-iI9n-MNEtw0XZR-3" value="&lt;font color=&quot;#ff3333&quot; style=&quot;font-size: 24px;&quot;&gt;FK&lt;/font&gt;" style="text;html=1;align=center;verticalAlign=middle;whiteSpace=wrap;rounded=0;" vertex="1" parent="1">
          <mxGeometry x="349.99999999999994" y="565.75" width="60" height="30" as="geometry" />
        </mxCell>
        <mxCell id="hbX9C-iI9n-MNEtw0XZR-4" value="&lt;font color=&quot;#014e66&quot; style=&quot;font-size: 24px;&quot;&gt;PK&lt;/font&gt;" style="text;html=1;align=center;verticalAlign=middle;whiteSpace=wrap;rounded=0;" vertex="1" parent="1">
          <mxGeometry x="630" y="566.5" width="60" height="30" as="geometry" />
        </mxCell>
        <mxCell id="hbX9C-iI9n-MNEtw0XZR-5" value="" style="group" vertex="1" connectable="0" parent="1">
          <mxGeometry x="640" y="800.5" width="200" height="43" as="geometry" />
        </mxCell>
        <mxCell id="hbX9C-iI9n-MNEtw0XZR-6" value="" style="swimlane;startSize=0;" vertex="1" parent="hbX9C-iI9n-MNEtw0XZR-5">
          <mxGeometry width="200" height="41.5" as="geometry">
            <mxRectangle width="50" height="40" as="alternateBounds" />
          </mxGeometry>
        </mxCell>
        <mxCell id="hbX9C-iI9n-MNEtw0XZR-7" value="&lt;font style=&quot;font-size: 24px;&quot;&gt;link&lt;/font&gt;" style="text;html=1;align=center;verticalAlign=middle;resizable=0;points=[];autosize=1;strokeColor=none;fillColor=none;" vertex="1" parent="hbX9C-iI9n-MNEtw0XZR-6">
          <mxGeometry x="70" y="1.5" width="60" height="40" as="geometry" />
        </mxCell>
        <mxCell id="hbX9C-iI9n-MNEtw0XZR-8" value="" style="group" vertex="1" connectable="0" parent="1">
          <mxGeometry x="840" y="320" width="200" height="43" as="geometry" />
        </mxCell>
        <mxCell id="hbX9C-iI9n-MNEtw0XZR-9" value="" style="swimlane;startSize=0;" vertex="1" parent="hbX9C-iI9n-MNEtw0XZR-8">
          <mxGeometry width="200" height="41.5" as="geometry">
            <mxRectangle width="50" height="40" as="alternateBounds" />
          </mxGeometry>
        </mxCell>
        <mxCell id="hbX9C-iI9n-MNEtw0XZR-10" value="&lt;span style=&quot;font-size: 24px;&quot;&gt;telefone&lt;/span&gt;" style="text;html=1;align=center;verticalAlign=middle;resizable=0;points=[];autosize=1;strokeColor=none;fillColor=none;" vertex="1" parent="hbX9C-iI9n-MNEtw0XZR-9">
          <mxGeometry x="45" y="1.5" width="110" height="40" as="geometry" />
        </mxCell>
      </root>
    </mxGraphModel>
  </diagram>
</mxfile>
